<svg width="70" height="68" viewBox="0 0 70 68" fill="none" xmlns="http://www.w3.org/2000/svg">
<g id="&#240;&#159;&#166;&#134; icon &#34;github&#34;">
<path id="Vector" d="M34.8587 0.00217864C15.6014 0.00217864 0 15.6167 0 34.8609C0 50.2706 9.98701 63.3317 23.8281 67.9396C25.5776 68.2685 26.2094 67.1901 26.2094 66.2576C26.2094 65.4297 26.1898 63.2402 26.1767 60.3338C16.4751 62.4341 14.4315 55.6475 14.4315 55.6475C12.8432 51.6301 10.5513 50.5516 10.5513 50.5516C7.39658 48.3969 10.8018 48.4427 10.8018 48.4427C14.2964 48.6801 16.1352 52.0266 16.1352 52.0266C19.2442 57.36 24.2921 55.8175 26.29 54.9199C26.595 52.6736 27.5035 51.129 28.4926 50.2684C20.754 49.3947 12.6167 46.3991 12.6167 33.0417C12.6167 29.2268 13.9674 26.12 16.2006 23.6799C15.8149 22.8063 14.6341 19.2551 16.5078 14.4533C16.5078 14.4533 19.425 13.523 26.0939 18.0285C28.8848 17.255 31.8478 16.8694 34.8086 16.8498C37.7716 16.8694 40.7324 17.2572 43.5232 18.0285C50.1529 13.523 53.068 14.4533 53.068 14.4533C54.9395 19.2551 53.7586 22.8041 53.4187 23.6799C55.6301 26.12 56.9809 29.229 56.9809 33.0417C56.9809 46.4296 48.8327 49.3817 41.0853 50.2335C42.2966 51.2771 43.4317 53.4231 43.4317 56.6802C43.4317 61.3426 43.3882 65.0986 43.3882 66.2337C43.3882 67.14 43.9982 68.2293 45.7934 67.8786C59.7369 63.3186 69.713 50.2466 69.713 34.8587C69.713 15.6145 54.1116 0 34.8543 0L34.8587 0.00217864Z" fill="white"/>
</g>
</svg>
