<svg width="117" height="59" viewBox="0 0 117 59" fill="none" xmlns="http://www.w3.org/2000/svg">
<g id="Icon">
<g id="&#240;&#159;&#166;&#134; emoji &#34;llama&#34;">
<g id="Group">
<path id="Vector" d="M34.6863 14.718C35.1303 14.718 35.4903 14.3163 35.4903 13.8208C35.4903 13.3254 35.1303 12.9237 34.6863 12.9237C34.2423 12.9237 33.8823 13.3254 33.8823 13.8208C33.8823 14.3163 34.2423 14.718 34.6863 14.718Z" fill="white"/>
<path id="Vector_2" d="M71.6439 38.6816L71.7841 38.8329C72.9018 40.0385 73.5132 41.702 73.4886 43.404V53.2557C73.4886 55.5428 71.8237 57.4006 69.7742 57.4006H67.5713C65.5218 57.4006 63.8569 55.5428 63.8569 53.2557V49.3958L62.8214 48.6867L59.9671 54.468L59.933 54.5186C59.5041 55.1556 58.8394 55.5683 58.0843 55.5683H56.4281C55.4244 55.5683 54.8838 54.4117 55.2316 53.4953L57.9261 45.3383L57.9489 45.2887L57.9507 45.285C57.4905 44.8893 57.0666 44.451 56.6897 43.971C55.4416 44.5498 54.0911 44.8583 52.7137 44.8583H51.8271L53.8813 53.7436L53.8842 53.758C53.9456 54.0641 53.943 54.4484 53.8002 54.8016C53.6377 55.2038 53.2765 55.5683 52.7457 55.5683H52.7398L50.4914 55.5494C50.287 55.5491 50.0087 55.5159 49.7417 55.3619C49.4467 55.1918 49.196 54.8879 49.1032 54.4527L47.7022 48.5164C47.6879 48.4489 47.6438 48.387 47.6041 48.3604L47.6006 48.3579C47.5226 48.305 47.4461 48.2499 47.3708 48.1927C47.1 49.0852 46.6969 49.9287 46.1693 50.6852V53.2737C46.1693 55.6347 44.4374 57.4186 42.4389 57.4186H40.236C38.2667 57.4186 36.4843 55.628 36.5377 53.2112V42.831C33.6272 40.671 31.6977 36.9795 31.6977 32.7645V22.4851H30.5239C28.6883 22.4851 27.3372 21.3344 26.5695 20.2636C25.796 19.1846 25.2659 17.7371 25.2659 16.2051C25.2659 15.2871 25.4638 14.3233 25.7537 13.5116C26.0063 12.8042 26.5735 11.512 27.7488 10.6968L27.7547 10.6926L32.7516 7.24339C32.9742 7.08508 33.1978 6.93891 33.4193 6.8043L32.9892 5.33666C32.1992 2.72238 33.9267 0 36.4251 0C39.3456 0 41.8983 2.08684 42.8388 5.09974L42.8471 5.12635L48.2209 23.2545H61.043C62.8791 23.2545 64.5906 23.8524 66.0296 24.8832C66.6094 23.9428 67.5806 23.3263 68.6808 23.3263C70.4569 23.3263 71.8967 24.9329 71.8967 26.915C71.8967 28.4549 71.0276 29.7681 69.807 30.2774C70.1194 31.3122 70.2887 32.42 70.2887 33.5719V37.5385L71.6439 38.6816ZM67.507 39.6906C67.2336 39.3856 67.0728 38.9549 67.0728 38.5063V33.5719C67.0728 29.8577 64.3714 26.8432 61.043 26.8432H47.9059C46.8447 26.8432 45.8638 26.1613 45.3814 25.1027L39.8018 6.28016C39.6467 5.78316 39.409 5.33483 39.1092 4.953C38.6443 4.36107 38.03 3.92897 37.342 3.72322L37.287 3.70728C37.0096 3.62963 36.7206 3.58866 36.4251 3.58866C36.1357 3.58866 35.9427 3.8937 36.0392 4.19873L37.4381 8.97165C37.3892 8.97165 37.3154 8.9812 37.2209 9.00054C37.003 9.04519 36.6752 9.14201 36.2905 9.29411C38.1103 10.0381 39.416 11.9867 39.416 14.2649V16.0593C39.416 18.0799 37.9503 19.7376 36.1357 19.7376H34.9136V32.7645C34.9136 36.3711 36.9236 39.4394 39.7536 40.6775V53.2737C39.7375 53.5787 39.9626 53.8299 40.236 53.8299H42.4389C42.6588 53.8299 42.8417 53.6848 42.9168 53.4813C42.9404 53.4171 42.9534 53.3469 42.9534 53.2737V49.7568C42.9534 49.6892 42.9589 49.6233 42.9695 49.5594C43.0065 49.335 43.1052 49.1349 43.2429 48.9673C44.0951 48.0342 44.5614 46.7603 44.5614 45.4325V41.2696H52.7137C53.542 41.2696 54.3571 41.1072 55.1236 40.8004C56.2467 40.3509 57.2654 39.5914 58.0682 38.5781C58.0682 39.9219 58.5582 41.0834 59.4892 42.0446C59.7267 42.2899 59.993 42.5221 60.2872 42.741L66.6547 47.1012C66.8644 47.2621 67.0101 47.5184 67.0567 47.8019C67.0673 47.8663 67.0728 47.932 67.0728 47.9984V53.2557C67.0728 53.5608 67.2979 53.812 67.5713 53.812H69.7742C70.0475 53.812 70.2726 53.5608 70.2726 53.2557V43.369C70.2887 42.6512 70.0315 41.9335 69.5491 41.4132L67.507 39.6906ZM28.5279 16.149C28.7297 17.1761 29.5466 17.9433 30.5239 17.9433H36.1357C37.0523 17.9433 37.808 17.1 37.808 16.0593V14.2649C37.808 12.345 36.393 10.766 34.6564 10.766C34.1253 10.766 33.5942 10.917 33.1253 11.2052L29.4466 13.7446C29.2578 13.8755 29.0916 14.0935 28.9528 14.3546H29.284C29.7342 14.3546 30.088 14.7494 30.088 15.2518C30.088 15.7542 29.7342 16.149 29.284 16.149H28.5279Z" fill="white"/>
</g>
</g>
<g id="&#240;&#159;&#166;&#134; icon &#34;less than&#34;">
<path id="Vector_3" d="M4.30863 35.8472L13.7843 48.8739C14.3267 49.6196 14.6198 52.0373 14.439 54.2741C14.2582 56.5109 13.672 57.7198 13.1297 56.9742L0.707851 39.8974C-0.235891 38.5999 -0.235891 33.0945 0.707851 31.7971L13.1297 14.7202C13.672 13.9746 14.2582 15.1835 14.439 17.4203C14.6198 19.6572 14.3267 22.0749 13.7843 22.8205L4.30863 35.8472Z" fill="white"/>
</g>
<g id="&#240;&#159;&#166;&#134; icon &#34;less than&#34;_2">
<path id="Vector_4" d="M112.691 36.6528L103.216 49.6795C102.673 50.4251 102.38 52.8428 102.561 55.0797C102.742 57.3165 103.328 58.5254 103.87 57.7797L116.292 40.7029C117.236 39.4055 117.236 33.9 116.292 32.6026L103.87 15.5258C103.328 14.7802 102.742 15.989 102.561 18.2259C102.38 20.4627 102.673 22.8804 103.216 23.626L112.691 36.6528Z" fill="white"/>
</g>
<g id="&#240;&#159;&#166;&#134; icon &#34;slash solid&#34;">
<path id="Vector_5" d="M81.8959 54.0225L82.8024 54.3331L81.8959 54.0225C81.4777 55.2173 81.9769 56.5021 83.0431 56.9747C84.2374 57.5041 85.6607 56.8116 86.1293 55.4731L99.2971 17.8551C99.7153 16.6603 99.2161 15.3755 98.1499 14.903C96.9556 14.3735 95.5323 15.0661 95.0637 16.4046L81.8959 54.0225Z" fill="white" stroke="white" stroke-width="2"/>
</g>
</g>
</svg>
